<?xml version="1.0" encoding="utf-8"?>
<svg viewBox="119.616 119.616 284.088 254.184" xmlns="http://www.w3.org/2000/svg">
  <path style="stroke: rgb(0, 0, 0); stroke-linecap: round; stroke-linejoin: round; stroke-width: 0px;" d="M 403.704 119.616 C 403.704 119.616 170.75 338.146 171.325 338.869 C 171.65 339.276 324.744 338.443 333.263 338.443 C 334.535 338.443 377.105 261.605 377.105 261.605 L 326.05 307.582 C 326.05 307.582 249.64 308.413 249.336 308.03 L 403.704 119.616 Z"/>
  <path style="stroke: rgb(0, 0, 0); stroke-linecap: round; stroke-linejoin: round; stroke-width: 0px;" d="M 351.996 154.435 C 351.996 154.435 119.042 372.965 119.617 373.688 C 119.942 374.095 273.036 373.262 281.555 373.262 C 282.827 373.262 325.397 296.424 325.397 296.424 L 274.342 342.401 C 274.342 342.401 197.932 343.232 197.628 342.849 L 351.996 154.435 Z" transform="matrix(-1, 0, 0, -1, 471.611976, 528.235054)"/>
</svg>